<mxfile host="app.diagrams.net" modified="2024-05-01T17:49:35.049Z" agent="Mozilla/5.0 (Windows NT 10.0; Win64; x64) AppleWebKit/537.36 (KHTML, like Gecko) Chrome/124.0.0.0 Safari/537.36" etag="qbgt00glZ162bAn3O1dx" version="24.3.0" type="device">
  <diagram id="C5RBs43oDa-KdzZeNtuy" name="Page-1">
    <mxGraphModel dx="1518" dy="1834" grid="1" gridSize="10" guides="1" tooltips="1" connect="1" arrows="1" fold="1" page="1" pageScale="1" pageWidth="827" pageHeight="1169" math="0" shadow="0">
      <root>
        <mxCell id="WIyWlLk6GJQsqaUBKTNV-0" />
        <mxCell id="WIyWlLk6GJQsqaUBKTNV-1" parent="WIyWlLk6GJQsqaUBKTNV-0" />
        <mxCell id="lCUK7jReSKYNZWsdaU3_-1" value="Конец" style="rounded=1;whiteSpace=wrap;html=1;" parent="WIyWlLk6GJQsqaUBKTNV-1" vertex="1">
          <mxGeometry x="300" y="540" width="160" height="40" as="geometry" />
        </mxCell>
        <mxCell id="lCUK7jReSKYNZWsdaU3_-31" style="edgeStyle=orthogonalEdgeStyle;rounded=0;orthogonalLoop=1;jettySize=auto;html=1;" parent="WIyWlLk6GJQsqaUBKTNV-1" source="lCUK7jReSKYNZWsdaU3_-4" target="lCUK7jReSKYNZWsdaU3_-30" edge="1">
          <mxGeometry relative="1" as="geometry" />
        </mxCell>
        <mxCell id="lCUK7jReSKYNZWsdaU3_-4" value="выбор валюты" style="rounded=0;whiteSpace=wrap;html=1;" parent="WIyWlLk6GJQsqaUBKTNV-1" vertex="1">
          <mxGeometry x="280" width="160" height="80" as="geometry" />
        </mxCell>
        <mxCell id="lCUK7jReSKYNZWsdaU3_-14" style="edgeStyle=orthogonalEdgeStyle;rounded=0;orthogonalLoop=1;jettySize=auto;html=1;" parent="WIyWlLk6GJQsqaUBKTNV-1" source="lCUK7jReSKYNZWsdaU3_-8" target="lCUK7jReSKYNZWsdaU3_-13" edge="1">
          <mxGeometry relative="1" as="geometry" />
        </mxCell>
        <mxCell id="lCUK7jReSKYNZWsdaU3_-16" value="Да" style="edgeLabel;html=1;align=center;verticalAlign=middle;resizable=0;points=[];" parent="lCUK7jReSKYNZWsdaU3_-14" vertex="1" connectable="0">
          <mxGeometry x="-0.5054" y="-1" relative="1" as="geometry">
            <mxPoint as="offset" />
          </mxGeometry>
        </mxCell>
        <mxCell id="lCUK7jReSKYNZWsdaU3_-15" style="edgeStyle=orthogonalEdgeStyle;rounded=0;orthogonalLoop=1;jettySize=auto;html=1;entryX=0.5;entryY=0;entryDx=0;entryDy=0;" parent="WIyWlLk6GJQsqaUBKTNV-1" source="lCUK7jReSKYNZWsdaU3_-8" target="lCUK7jReSKYNZWsdaU3_-12" edge="1">
          <mxGeometry relative="1" as="geometry" />
        </mxCell>
        <mxCell id="lCUK7jReSKYNZWsdaU3_-17" value="Нет" style="edgeLabel;html=1;align=center;verticalAlign=middle;resizable=0;points=[];" parent="lCUK7jReSKYNZWsdaU3_-15" vertex="1" connectable="0">
          <mxGeometry x="-0.371" y="1" relative="1" as="geometry">
            <mxPoint as="offset" />
          </mxGeometry>
        </mxCell>
        <mxCell id="lCUK7jReSKYNZWsdaU3_-8" value="Оплата" style="rhombus;whiteSpace=wrap;html=1;" parent="WIyWlLk6GJQsqaUBKTNV-1" vertex="1">
          <mxGeometry x="282.5" y="220" width="155" height="60" as="geometry" />
        </mxCell>
        <mxCell id="lCUK7jReSKYNZWsdaU3_-12" value="выводит ошибку" style="rounded=0;whiteSpace=wrap;html=1;" parent="WIyWlLk6GJQsqaUBKTNV-1" vertex="1">
          <mxGeometry x="520" y="320" width="120" height="60" as="geometry" />
        </mxCell>
        <mxCell id="lCUK7jReSKYNZWsdaU3_-20" style="edgeStyle=orthogonalEdgeStyle;rounded=0;orthogonalLoop=1;jettySize=auto;html=1;entryX=0.5;entryY=0;entryDx=0;entryDy=0;" parent="WIyWlLk6GJQsqaUBKTNV-1" source="lCUK7jReSKYNZWsdaU3_-13" target="lCUK7jReSKYNZWsdaU3_-19" edge="1">
          <mxGeometry relative="1" as="geometry" />
        </mxCell>
        <mxCell id="lCUK7jReSKYNZWsdaU3_-13" value="происходит конвертация" style="rounded=0;whiteSpace=wrap;html=1;" parent="WIyWlLk6GJQsqaUBKTNV-1" vertex="1">
          <mxGeometry x="80" y="320" width="120" height="60" as="geometry" />
        </mxCell>
        <mxCell id="lCUK7jReSKYNZWsdaU3_-19" value="Отправка на кошелек пользователя" style="rounded=0;whiteSpace=wrap;html=1;" parent="WIyWlLk6GJQsqaUBKTNV-1" vertex="1">
          <mxGeometry x="80" y="440" width="120" height="60" as="geometry" />
        </mxCell>
        <mxCell id="lCUK7jReSKYNZWsdaU3_-23" value="" style="endArrow=classic;html=1;rounded=0;entryX=1;entryY=0.5;entryDx=0;entryDy=0;" parent="WIyWlLk6GJQsqaUBKTNV-1" target="lCUK7jReSKYNZWsdaU3_-4" edge="1">
          <mxGeometry width="50" height="50" relative="1" as="geometry">
            <mxPoint x="640" y="360" as="sourcePoint" />
            <mxPoint x="690" y="310" as="targetPoint" />
            <Array as="points">
              <mxPoint x="680" y="360" />
              <mxPoint x="680" y="40" />
            </Array>
          </mxGeometry>
        </mxCell>
        <mxCell id="lCUK7jReSKYNZWsdaU3_-26" value="" style="endArrow=classic;html=1;rounded=0;exitX=0.5;exitY=1;exitDx=0;exitDy=0;entryX=0;entryY=0.5;entryDx=0;entryDy=0;" parent="WIyWlLk6GJQsqaUBKTNV-1" source="lCUK7jReSKYNZWsdaU3_-19" target="lCUK7jReSKYNZWsdaU3_-1" edge="1">
          <mxGeometry width="50" height="50" relative="1" as="geometry">
            <mxPoint x="120" y="580" as="sourcePoint" />
            <mxPoint x="280" y="555" as="targetPoint" />
            <Array as="points">
              <mxPoint x="140" y="560" />
            </Array>
          </mxGeometry>
        </mxCell>
        <mxCell id="lCUK7jReSKYNZWsdaU3_-28" value="" style="endArrow=classic;html=1;rounded=0;exitX=0.5;exitY=1;exitDx=0;exitDy=0;entryX=1;entryY=0.5;entryDx=0;entryDy=0;" parent="WIyWlLk6GJQsqaUBKTNV-1" source="lCUK7jReSKYNZWsdaU3_-12" target="lCUK7jReSKYNZWsdaU3_-1" edge="1">
          <mxGeometry width="50" height="50" relative="1" as="geometry">
            <mxPoint x="520" y="510" as="sourcePoint" />
            <mxPoint x="470" y="555" as="targetPoint" />
            <Array as="points">
              <mxPoint x="580" y="560" />
            </Array>
          </mxGeometry>
        </mxCell>
        <mxCell id="lCUK7jReSKYNZWsdaU3_-32" style="edgeStyle=orthogonalEdgeStyle;rounded=0;orthogonalLoop=1;jettySize=auto;html=1;entryX=0.5;entryY=0;entryDx=0;entryDy=0;" parent="WIyWlLk6GJQsqaUBKTNV-1" source="lCUK7jReSKYNZWsdaU3_-30" target="lCUK7jReSKYNZWsdaU3_-8" edge="1">
          <mxGeometry relative="1" as="geometry" />
        </mxCell>
        <mxCell id="lCUK7jReSKYNZWsdaU3_-30" value="Оправка заявки" style="rounded=0;whiteSpace=wrap;html=1;" parent="WIyWlLk6GJQsqaUBKTNV-1" vertex="1">
          <mxGeometry x="300" y="110" width="120" height="60" as="geometry" />
        </mxCell>
        <mxCell id="6F7j7vH9gptZ6meu8Nd2-0" style="edgeStyle=orthogonalEdgeStyle;rounded=0;orthogonalLoop=1;jettySize=auto;html=1;entryX=0.5;entryY=0;entryDx=0;entryDy=0;" edge="1" parent="WIyWlLk6GJQsqaUBKTNV-1" source="lCUK7jReSKYNZWsdaU3_-34" target="lCUK7jReSKYNZWsdaU3_-4">
          <mxGeometry relative="1" as="geometry" />
        </mxCell>
        <mxCell id="lCUK7jReSKYNZWsdaU3_-34" value="Начало" style="rounded=1;whiteSpace=wrap;html=1;" parent="WIyWlLk6GJQsqaUBKTNV-1" vertex="1">
          <mxGeometry x="280" y="-70" width="160" height="40" as="geometry" />
        </mxCell>
      </root>
    </mxGraphModel>
  </diagram>
</mxfile>
